<svg xmlns="http://www.w3.org/2000/svg" viewBox="-108 352 1192 1192" role="img" aria-label="Zolvi">
  <title>Zolvi</title>
  <path fill="#40ace1" d="M444.2,944.23c43.92,43.31,88.07,93.99,132.46,138.51,60.7,60.88,206.25,177.67,214.51,261.17,14.72,148.83-147.27,243.49-268.66,155.58-126.07-133.08-268.5-256.86-392.26-391.45-4.42-4.81-9.76-8.02-9.67-15.66,49.87,29.38,101.33,31.14,154.71,8.49,43.31-18.38,61.93-51.79,92.9-82.55,23.15-23,56.79-44.19,72.11-74.1.66.65,3.24-.65,3.9,0Z"/>
  <path fill="#ec195a" d="M444.2,944.23c-.66-.65-3.24.65-3.9,0-89.27-87.92-176.74-215.34-319.72-144.26l401.93-403.21c161.65-115.43,353.65,85.51,229.79,241.49l-308.11,305.98Z"/>
  <path fill="#1c1953" d="M440.3,944.23c-15.32,29.91-48.95,51.11-72.11,74.1-30.97,30.76-49.59,64.17-92.9,82.55-53.38,22.65-104.83,20.88-154.71-8.49-87.09-51.3-108.94-169.99-44.88-249.58,6.8-8.46,36.67-38.76,44.88-42.84,142.98-71.08,230.45,56.34,319.72,144.26Z"/>
  <circle fill="#1c1953" cx="768.76" cy="947.99" r="167.77"/>
</svg>
